HIERARCHY
ROOT Hips
{
	OFFSET 0.000000 0.000000 0.000000
	CHANNELS 6 Xposition Yposition Zposition Zrotation Yrotation Xrotation 
	JOINT LHipJoint
	{
		OFFSET 0.000000 0.000000 0.000000
		CHANNELS 3 Zrotation Yrotation Xrotation
		JOINT LeftUpLeg
		{
			OFFSET 1.363060 -1.794630 0.839290
			CHANNELS 3 Zrotation Yrotation Xrotation
			JOINT LeftLeg
			{
				OFFSET 2.448110 -6.726130 0.000000
				CHANNELS 3 Zrotation Yrotation Xrotation
				JOINT LeftFoot
				{
					OFFSET 2.562200 -7.039590 0.000000
					CHANNELS 3 Zrotation Yrotation Xrotation
					JOINT LeftToeBase
					{
						OFFSET 0.157640 -0.433110 2.322550
						CHANNELS 3 Zrotation Yrotation Xrotation
						End Site
						{
							OFFSET 0.000000 0.000000 0.000000
						}
					}
				}
			}
		}
	}
	JOINT RHipJoint
	{
		OFFSET 0.000000 0.000000 0.000000
		CHANNELS 3 Zrotation Yrotation Xrotation
		JOINT RightUpLeg
		{
			OFFSET -1.305520 -1.794630 0.839290
			CHANNELS 3 Zrotation Yrotation Xrotation
			JOINT RightLeg
			{
				OFFSET -2.542530 -6.985550 0.000000
				CHANNELS 3 Zrotation Yrotation Xrotation
				JOINT RightFoot
				{
					OFFSET -2.568260 -7.056230 0.000000
					CHANNELS 3 Zrotation Yrotation Xrotation
					JOINT RightToeBase
					{
						OFFSET -0.164730 -0.452590 2.363150
						CHANNELS 3 Zrotation Yrotation Xrotation
						End Site
						{
							OFFSET 0.000000 0.000000 0.000000
						}
					}
				}
			}
		}
	}
	JOINT LowerBack
	{
		OFFSET 0.000000 0.000000 0.000000
		CHANNELS 3 Zrotation Yrotation Xrotation
		JOINT Spine
		{
			OFFSET 0.028270 2.035590 -0.193380
			CHANNELS 3 Zrotation Yrotation Xrotation
			JOINT Spine1
			{
				OFFSET 0.056720 2.048850 -0.042750
				CHANNELS 3 Zrotation Yrotation Xrotation
				JOINT Neck
				{
					OFFSET 0.000000 0.000000 0.000000
					CHANNELS 3 Zrotation Yrotation Xrotation
					JOINT Neck1
					{
						OFFSET -0.054170 1.746240 0.172020
						CHANNELS 3 Zrotation Yrotation Xrotation
						JOINT Head
						{
							OFFSET 0.104070 1.761360 -0.123970
							CHANNELS 3 Zrotation Yrotation Xrotation
							End Site
							{
								OFFSET 0.000000 0.000000 0.000000
							}
						}
					}
				}
				JOINT LeftShoulder
				{
					OFFSET 0.000000 0.000000 0.000000
					CHANNELS 3 Zrotation Yrotation Xrotation
					JOINT LeftArm
					{
						OFFSET 3.362410 1.200890 -0.311210
						CHANNELS 3 Zrotation Yrotation Xrotation
						JOINT LeftForeArm
						{
							OFFSET 4.983000 -0.000000 -0.000000
							CHANNELS 3 Zrotation Yrotation Xrotation
							JOINT LeftHand
							{
								OFFSET 3.483560 -0.000000 -0.000000
								CHANNELS 3 Zrotation Yrotation Xrotation
								JOINT LeftFingerBase
								{
									OFFSET 0.000000 0.000000 0.000000
									CHANNELS 3 Zrotation Yrotation Xrotation
									JOINT LeftHandIndex1
									{
										OFFSET 0.715260 -0.000000 -0.000000
										CHANNELS 3 Zrotation Yrotation Xrotation
										End Site
										{
											OFFSET 0.000000 0.000000 0.000000
										}
									}
								}
								JOINT LThumb
								{
									OFFSET 0.000000 0.000000 0.000000
									CHANNELS 3 Zrotation Yrotation Xrotation
									End Site
									{
										OFFSET 0.000000 0.000000 0.000000
									}
								}
							}
						}
					}
				}
				JOINT RightShoulder
				{
					OFFSET 0.000000 0.000000 0.000000
					CHANNELS 3 Zrotation Yrotation Xrotation
					JOINT RightArm
					{
						OFFSET -3.136600 1.374050 -0.404650
						CHANNELS 3 Zrotation Yrotation Xrotation
						JOINT RightForeArm
						{
							OFFSET -5.241900 -0.000000 -0.000000
							CHANNELS 3 Zrotation Yrotation Xrotation
							JOINT RightHand
							{
								OFFSET -3.444170 -0.000000 -0.000000
								CHANNELS 3 Zrotation Yrotation Xrotation
								JOINT RightFingerBase
								{
									OFFSET 0.000000 0.000000 0.000000
									CHANNELS 3 Zrotation Yrotation Xrotation
									JOINT RightHandIndex1
									{
										OFFSET -0.622530 -0.000000 -0.000000
										CHANNELS 3 Zrotation Yrotation Xrotation
										End Site
										{
											OFFSET 0.000000 0.000000 0.000000
										}
									}
								}
								JOINT RThumb
								{
									OFFSET 0.000000 0.000000 0.000000
									CHANNELS 3 Zrotation Yrotation Xrotation
									End Site
									{
										OFFSET 0.000000 0.000000 0.000000
									}
								}
							}
						}
					}
				}
			}
		}
	}
}
MOTION
Frames: 8
Frame Time: 0.008333
2.604265 17.277594 6.144303 0.441918 23.001671 0.126647 -1.176192 1.689509 2.178686 -15.218572 -21.914783 11.969579 1.763149 7.646251 22.070415 -0.367255 -16.567215 -8.747109 0.068900 -1.693600 -4.659600 -3.318485 -2.651883 3.354276 15.833739 29.795351 -34.926103 -11.124683 -16.701098 61.573601 -0.789745 15.541176 -18.911834 -0.193800 2.835200 -7.820300 -0.267084 -2.143100 3.215440 -6.854424 -3.457866 11.976295 3.555298 -1.340006 -8.838626 0.054425 -2.702370 -15.712230 4.379100 -3.067291 35.173451 -0.768600 0.461500 15.262500 1.121500 -8.590819 -0.301009 -94.392311 -9.413285 33.525097 18.940922 -18.193270 -3.213549 -0.244108 -0.442637 -18.645791 22.818436 11.383431 4.974500 -7.125000 0.000000 0.000000 -3.607900 42.671900 0.207600 3.182612 11.867994 0.891896 84.049837 1.248209 20.122140 -21.490102 21.723785 -5.007250 1.153264 -0.388779 -8.161812 -40.274971 -4.556575 3.309500 7.125000 0.000000 0.000000 -12.175100 -34.780700 -3.113600 
2.610803 17.273804 6.231475 0.505819 23.152658 0.235584 -1.184418 1.688038 2.177115 -15.266834 -21.923308 12.215257 1.752878 7.628205 21.999174 -0.358645 -16.466508 -8.749803 0.066500 -1.663700 -4.577100 -3.310668 -2.661760 3.356609 15.574704 29.712430 -35.213182 -11.138780 -16.704441 61.623724 -0.783179 15.472359 -18.834230 -0.190900 2.813700 -7.760500 -0.307292 -2.141530 3.237544 -6.929801 -3.459537 11.914382 3.590772 -1.335500 -8.844418 0.038043 -2.711673 -15.707527 4.340208 -3.059000 35.304507 -0.772900 0.463900 15.320000 1.121295 -8.591854 -0.297055 -94.370854 -9.412177 33.382494 18.838615 -18.046723 -3.167419 -0.249525 -0.436899 -18.464716 22.762613 11.413079 4.971200 -7.125000 0.000000 0.000000 -3.659400 42.690800 0.208800 3.196824 11.874415 0.895177 84.097341 1.262601 20.178486 -21.493990 21.727358 -5.010291 1.155006 -0.387057 -8.192059 -40.299108 -4.548607 3.306300 7.125000 0.000000 0.000000 -12.195400 -34.772600 -3.121400 
2.617151 17.270014 6.316467 0.562316 23.303167 0.339949 -1.191950 1.687417 2.177315 -15.296218 -21.895823 12.382208 1.754529 7.636744 22.012963 -0.350713 -16.365272 -8.744662 0.064700 -1.641600 -4.516100 -3.302340 -2.671835 3.360858 15.325227 29.631318 -35.486886 -11.149104 -16.705875 61.660628 -0.774900 15.420777 -18.750951 -0.186100 2.778500 -7.662800 -0.341064 -2.135510 3.251653 -6.993436 -3.454208 11.884319 3.618799 -1.329260 -8.846134 0.024147 -2.719247 -15.703579 4.302167 -3.049650 35.411686 -0.778300 0.466200 15.368700 1.124253 -8.593601 -0.294291 -94.343331 -9.418663 33.289608 18.762389 -17.937770 -3.133670 -0.253789 -0.432348 -18.333231 22.725481 11.443686 4.973200 -7.125000 0.000000 0.000000 -3.694800 42.714100 0.208700 3.206300 11.880085 0.896237 84.142249 1.287460 20.220105 -21.497997 21.731764 -5.013331 1.157167 -0.384993 -8.223105 -40.325488 -4.554072 3.315200 7.125000 0.000000 0.000000 -12.219900 -34.782300 -3.125000 
2.623310 17.266319 6.399470 0.615723 23.448139 0.438841 -1.199467 1.687479 2.179640 -15.309964 -21.824416 12.478799 1.766544 7.668373 22.100088 -0.343627 -16.263607 -8.726764 0.062900 -1.617700 -4.450300 -3.294405 -2.682035 3.366804 15.085369 29.555663 -35.739570 -11.155261 -16.705187 61.683702 -0.765070 15.391594 -18.663691 -0.180100 2.733100 -7.536700 -0.368582 -2.124981 3.257886 -7.054007 -3.441266 11.886775 3.640609 -1.321156 -8.842909 0.006232 -2.725702 -15.695635 4.271887 -3.039996 35.489224 -0.781400 0.467900 15.405300 1.131892 -8.596191 -0.292548 -94.306377 -9.431150 33.243264 18.710769 -17.864317 -3.110949 -0.256317 -0.428587 -18.245484 22.690974 11.466764 4.972900 -7.125000 0.000000 0.000000 -3.727900 42.730600 0.209100 3.211856 11.885140 0.895000 84.184260 1.326265 20.257163 -21.498344 21.732332 -5.015273 1.159576 -0.383789 -8.250652 -40.363396 -4.550829 3.316900 7.125000 0.000000 0.000000 -12.252600 -34.779700 -3.134500 
2.629469 17.262529 6.480105 0.652127 23.579097 0.522181 -1.206559 1.688295 2.183706 -15.297598 -21.703497 12.518340 1.786684 7.718875 22.246547 -0.337292 -16.158805 -8.695145 0.061000 -1.593900 -4.384600 -3.287523 -2.690697 3.373037 14.874956 29.488404 -35.958888 -11.156593 -16.702229 61.689894 -0.753713 15.386838 -18.573713 -0.173000 2.679400 -7.387400 -0.370182 -2.110293 3.267262 -7.111476 -3.418926 11.911988 3.646277 -1.310611 -8.842887 -0.002587 -2.727321 -15.675645 4.239198 -3.026435 35.539061 -0.787800 0.470800 15.428300 1.143512 -8.599427 -0.291282 -94.255968 -9.448111 33.243966 18.679733 -17.820954 -3.097589 -0.257243 -0.426558 -18.199013 22.641701 11.510310 4.978200 -7.125000 0.000000 0.000000 -3.778400 42.769900 0.208200 3.214198 11.887958 0.891414 84.226126 1.371790 20.298699 -21.494888 21.728785 -5.015803 1.162319 -0.382760 -8.275086 -40.404465 -4.549802 3.320600 7.125000 0.000000 0.000000 -12.288500 -34.779700 -3.144000 
2.635817 17.258644 6.558749 0.678842 23.694014 0.587289 -1.212933 1.689561 2.189982 -15.271321 -21.532223 12.520900 1.812943 7.782603 22.435666 -0.332069 -16.052359 -8.646823 0.058800 -1.564700 -4.304000 -3.281120 -2.698603 3.380302 14.689488 29.420893 -36.140544 -11.153512 -16.697383 61.681048 -0.739077 15.415149 -18.471826 -0.164800 2.615700 -7.210700 -0.362544 -2.090702 3.275500 -7.157676 -3.388108 11.970056 3.643013 -1.297706 -8.842588 0.000052 -2.721328 -15.642128 4.198566 -3.004721 35.557933 -0.799300 0.476000 15.436500 1.158093 -8.604395 -0.291581 -94.199541 -9.474297 33.275612 18.664652 -17.800972 -3.091303 -0.256994 -0.425159 -18.175122 22.589916 11.552898 4.982500 -7.125000 0.000000 0.000000 -3.831800 42.808600 0.207500 3.211752 11.888936 0.885358 84.259905 1.428190 20.354983 -21.487125 21.720543 -5.014773 1.165445 -0.381912 -8.294058 -40.448023 -4.558261 3.332800 7.125000 0.000000 0.000000 -12.328100 -34.791700 -3.150900 
2.642734 17.254664 6.635309 0.692600 23.785096 0.634720 -1.218159 1.691173 2.197947 -15.232124 -21.314140 12.496387 1.843341 7.854702 22.652675 -0.327401 -15.944926 -8.590292 0.056200 -1.530000 -4.208500 -3.274985 -2.705462 3.388211 14.533203 29.352528 -36.286636 -11.146456 -16.691020 61.658679 -0.720889 15.477627 -18.355050 -0.156400 2.548200 -7.023300 -0.343660 -2.063998 3.280625 -7.187229 -3.345957 12.056906 3.628290 -1.281031 -8.841550 0.008116 -2.709884 -15.599797 4.150894 -2.975987 35.555595 -0.814500 0.483100 15.435000 1.174189 -8.610887 -0.293535 -94.140528 -9.512635 33.333205 18.660738 -17.797474 -3.090050 -0.255928 -0.424097 -18.173769 22.538471 11.588152 4.984000 -7.125000 0.000000 0.000000 -3.884400 42.840100 0.207400 3.204658 11.888961 0.877556 84.282057 1.494979 20.429246 -21.473736 21.705274 -5.011430 1.168595 -0.381489 -8.307917 -40.484962 -4.571445 3.348000 7.125000 0.000000 0.000000 -12.363000 -34.809200 -3.154700 
2.650314 17.250590 6.709594 0.693807 23.855418 0.663473 -1.221012 1.693205 2.207420 -15.186474 -21.059553 12.459133 1.876135 7.930522 22.883714 -0.323317 -15.840072 -8.527704 0.052300 -1.475500 -4.058100 -3.267761 -2.711405 3.397117 14.404890 29.277460 -36.398289 -11.136507 -16.683872 61.626304 -0.699199 15.572669 -18.225922 -0.147700 2.476200 -6.823700 -0.322764 -2.033920 3.285040 -7.183184 -3.298929 12.174279 3.604743 -1.263143 -8.841853 0.010924 -2.692877 -15.555873 4.095769 -2.935974 35.539544 -0.831100 0.492600 15.428400 1.189150 -8.618793 -0.297844 -94.088098 -9.568838 33.399403 18.663417 -17.803930 -3.091630 -0.254560 -0.423497 -18.180152 22.488426 11.619761 4.984400 -7.125000 0.000000 0.000000 -3.935600 42.868200 0.207400 3.191802 11.888960 0.869102 84.279278 1.576544 20.533819 -21.453547 21.681242 -5.004946 1.171455 -0.381811 -8.316733 -40.511239 -4.587399 3.363700 7.125000 0.000000 0.000000 -12.389100 -34.828700 -3.155700 
